<?xml version="1.0" encoding="UTF-8" standalone="no" ?>
<!DOCTYPE svg PUBLIC "-//W3C//DTD SVG 1.1//EN" "http://www.w3.org/Graphics/SVG/1.1/DTD/svg11.dtd">
<svg xmlns="http://www.w3.org/2000/svg" xmlns:xlink="http://www.w3.org/1999/xlink" version="1.1" width="1080" height="1080" viewBox="0 0 1080 1080" xml:space="preserve">
<desc>Created with Fabric.js 5.2.4</desc>
<defs>
</defs>
<g transform="matrix(1 0 0 1 540 540)" id="b46d4ca6-a385-430d-9330-6c9ee77bd1fb"  >
<rect style="stroke: none; stroke-width: 1; stroke-dasharray: none; stroke-linecap: butt; stroke-dashoffset: 0; stroke-linejoin: miter; stroke-miterlimit: 4; fill: rgb(255,255,255); fill-rule: nonzero; opacity: 1; visibility: hidden;" vector-effect="non-scaling-stroke"  x="-540" y="-540" rx="0" ry="0" width="1080" height="1080" />
</g>
<g transform="matrix(1 0 0 1 540 540)" id="43243622-d129-41ea-a61c-94ee6c0c3c15"  >
</g>
<g transform="matrix(22.45 0 0 22.45 530.73 549.27)"  >
<path style="stroke: none; stroke-width: 1; stroke-dasharray: none; stroke-linecap: butt; stroke-dashoffset: 0; stroke-linejoin: miter; stroke-miterlimit: 4; fill: rgb(36,58,90); fill-rule: nonzero; opacity: 1;" vector-effect="non-scaling-stroke"  transform=" translate(-20, -20)" d="M 0 20 C 0 10.5719 0 5.85786 2.92893 2.92893 C 5.85786 0 10.5719 0 20 0 C 29.4281 0 34.1421 0 37.0711 2.92893 C 40 5.85786 40 10.5719 40 20 C 40 29.4281 40 34.1421 37.0711 37.0711 C 34.1421 40 29.4281 40 20 40 C 10.5719 40 5.85786 40 2.92893 37.0711 C 0 34.1421 0 29.4281 0 20 Z" stroke-linecap="round" />
</g>
<g transform="matrix(22.45 0 0 22.45 530.63 739.93)"  >
<path style="stroke: none; stroke-width: 1; stroke-dasharray: none; stroke-linecap: butt; stroke-dashoffset: 0; stroke-linejoin: miter; stroke-miterlimit: 4; fill: rgb(45,248,187); fill-rule: nonzero; opacity: 1;" vector-effect="non-scaling-stroke"  transform=" translate(-20, -28.5)" d="M 24 26 C 24.5523 26 25.0101 26.4521 24.9004 26.9934 C 24.7065 27.9494 24.2355 28.8355 23.5355 29.5355 C 22.5979 30.4732 21.3261 31 20 31 C 18.6739 31 17.4022 30.4732 16.4645 29.5355 C 15.7645 28.8355 15.2935 27.9494 15.0997 26.9934 C 14.9899 26.4521 15.4477 26 16 26 L 24 26 Z" stroke-linecap="round" />
</g>
<g transform="matrix(22.45 0 0 22.45 737.29 481.81)"  >
<path style="stroke: none; stroke-width: 1; stroke-dasharray: none; stroke-linecap: butt; stroke-dashoffset: 0; stroke-linejoin: miter; stroke-miterlimit: 4; fill: rgb(45,248,187); fill-rule: nonzero; opacity: 1;" vector-effect="non-scaling-stroke"  transform=" translate(-29.21, -17)" d="M 26.1023 17.7765 C 25.5688 17.9194 25.2421 18.4775 25.5126 18.959 C 25.7973 19.4658 26.1911 19.9081 26.6702 20.2514 C 27.4224 20.7904 28.3382 21.052 29.2617 20.9914 C 30.1851 20.9309 31.059 20.5521 31.7344 19.9195 C 32.4099 19.2869 32.845 18.4396 32.9658 17.5221 C 33.0866 16.6046 32.8856 15.6736 32.3969 14.8877 C 31.9082 14.1019 31.1621 13.5098 30.2858 13.2123 C 29.4095 12.9148 28.4572 12.9304 27.5911 13.2564 C 27.0395 13.464 26.5447 13.7893 26.1385 14.2051 C 25.7526 14.6002 25.9237 15.2239 26.402 15.5 L 26.9093 15.7929 C 27.6808 16.2384 27.5287 17.3943 26.6681 17.6249 L 26.1023 17.7765 Z" stroke-linecap="round" />
</g>
<g transform="matrix(22.45 0 0 22.45 323.92 481.81)"  >
<path style="stroke: none; stroke-width: 1; stroke-dasharray: none; stroke-linecap: butt; stroke-dashoffset: 0; stroke-linejoin: miter; stroke-miterlimit: 4; fill: rgb(45,248,187); fill-rule: nonzero; opacity: 1;" vector-effect="non-scaling-stroke"  transform=" translate(-10.79, -17)" d="M 13.8978 17.7765 C 14.4313 17.9194 14.758 18.4775 14.4875 18.959 C 14.2028 19.4658 13.809 19.9081 13.33 20.2514 C 12.5778 20.7904 11.6619 21.052 10.7385 20.9914 C 9.81502 20.9309 8.94113 20.5521 8.2657 19.9195 C 7.59027 19.2869 7.15508 18.4396 7.03429 17.5221 C 6.9135 16.6046 7.11457 15.6736 7.60326 14.8877 C 8.09194 14.1019 8.838 13.5098 9.71431 13.2123 C 10.5906 12.9148 11.543 12.9304 12.4091 13.2564 C 12.9606 13.464 13.4555 13.7893 13.8617 14.2051 C 14.2476 14.6002 14.0764 15.2239 13.5981 15.5 L 13.0908 15.7929 C 12.3193 16.2384 12.4715 17.3943 13.332 17.6249 L 13.8978 17.7765 Z" stroke-linecap="round" />
</g>
</svg>